# xmcd CD database file
# Copyright (C) 1993-1998 Ti Kan
# 
# Track frame offsets:
#     183
#     19370
#     46278
#     67078
#     92328
#     117843
#     139203
#     159503
# 
# Disc length: 2524 seconds
# 
# Revision: 1
# Processed by: cddbd v1.4b41PL1 Copyright (c) Steve Scherf et al.
# Submitted via: DiscPlay 4.0.4
# 
DISCID=6809da08
DTITLE=Koko Taylor - An Audience With The Queen
DYEAR=1900
DGENRE=
TTITLE0=Let The Good Times Roll
TTITLE1=I'm A Woman
TTITLE2=Going Back To Luka
TTITLE3=The Devil's Gonna Have  Field Day
TTITLE4=Come To Mama
TTITLE5=I'd Rather Go Blind
TTITLE6=Let Me Love You
TTITLE7=Wang Dang Doodle
EXTD=
EXTT0=
EXTT1=
EXTT2=
EXTT3=
EXTT4=
EXTT5=
EXTT6=
EXTT7=
PLAYORDER=
